# xmcd
#
# Track frame offsets:
# 150
# 14101
# 27925
# 40489
# 54513
# 64761
# 78097
# 89129
# 102428
# 114702
# 127785
# 139834
# 153229
# 167793
#
# Disc length: 2404 seconds
#
#
# Revision: 4
# Processed by: cddbd v1.5.2PL0 Copyright (c) Steve Scherf et al.
# Submitted via: FreeRIP 2.951 
#
DISCID=bd09620e
DTITLE=Albert King and Otis Rush - Door To Door
DYEAR=1990
DGENRE=Blues
TTITLE0=Albert King - Searchin' For A Woman
TTITLE1=Albert King - Bad Luck
TTITLE2=Otis Rush - So Close
TTITLE3=Albert King - Howlin' For My Darling
TTITLE4=Otis Rush - I Can't Stop
TTITLE5=Albert King - Won't Be Hangin' Around
TTITLE6=Otis Rush - I'm Satisfied
TTITLE7=Otis Rush - All Your Love
TTITLE8=Otis Rush - You Know My Love
TTITLE9=Albert King - Merry Way
TTITLE10=Albert King - Wild Women
TTITLE11=Albert King - Murder
TTITLE12=Otis Rush - So Many Roads
TTITLE13=Albert King - California
EXTD=
EXTT0=
EXTT1=
EXTT2=
EXTT3=
EXTT4=
EXTT5=
EXTT6=
EXTT7=
EXTT8=
EXTT9=
EXTT10=
EXTT11=
EXTT12=
EXTT13=
PLAYORDER=
